<?xml version="1.0" standalone="no"?>
<!DOCTYPE svg PUBLIC "-//W3C//DTD SVG 20010904//EN"
 "http://www.w3.org/TR/2001/REC-SVG-20010904/DTD/svg10.dtd">
<svg version="1.0" xmlns="http://www.w3.org/2000/svg"
 width="512.000000pt" height="512.000000pt" viewBox="0 0 512.000000 512.000000"
 preserveAspectRatio="xMidYMid meet">

<g transform="translate(0.000000,512.000000) scale(0.100000,-0.100000)"
fill="#000000" stroke="none">
<path d="M2510 5113 c-25 -1 -97 -10 -160 -19 -1267 -172 -2210 -1254 -2210
-2534 0 -936 500 -1783 1325 -2243 490 -274 1098 -376 1670 -281 667 111 1274
501 1650 1059 57 86 195 325 195 339 0 2 -64 -19 -142 -45 -252 -85 -461 -115
-728 -106 -180 7 -302 24 -455 64 -706 185 -1261 742 -1441 1444 -39 153 -54
258 -61 415 -31 725 369 1459 1000 1835 l78 47 -58 6 c-209 23 -495 31 -663
19z"/>
</g>
</svg>
